# xmcd CD database file
#
# Track frame offsets:
#	182
#	15115
#	32062
#	47615
#	67840
#	86692
#	100690
#	116910
#	127765
#	147120
#	163337
#	177420
#	192447
#	206095
#	222040
#	238917
#
# Disc length: 3347 seconds
#
# Revision: 2
# Processed by: cddbd v1.5.2PL0 Copyright (c) Steve Scherf et al.
# Submitted via: CDex 1.51
#
DISCID=da0d1110
DTITLE=Fesáci - Dokud Mùzem
DYEAR=1900
DGENRE=Country
TTITLE0=Skladba 1
TTITLE1=Skladba 2
TTITLE2=Skladba 3
TTITLE3=Skladba 4
TTITLE4=Skladba 5
TTITLE5=Skladba 6
TTITLE6=Skladba 7
TTITLE7=Skladba 8
TTITLE8=Skladba 9
TTITLE9=Skladba 10
TTITLE10=Skladba 11
TTITLE11=Skladba 12
TTITLE12=Skladba 13
TTITLE13=Skladba 14
TTITLE14=Skladba 15
TTITLE15=Skladba 16
EXTD=
EXTT0=
EXTT1=
EXTT2=
EXTT3=
EXTT4=
EXTT5=
EXTT6=
EXTT7=
EXTT8=
EXTT9=
EXTT10=
EXTT11=
EXTT12=
EXTT13=
EXTT14=
EXTT15=
PLAYORDER=
